  <svg
    viewBox="0 0 14 9"
    xmlns="http://www.w3.org/2000/svg"
    fill="#FFFFFF"
  >
    <path d="M11.5628 0.713784C10.6793 0.38033 9.73448 0.137991 8.74675 0C8.62544 0.176899 8.48372 0.414832 8.38601 0.604107C7.33602 0.476741 6.29569 0.476741 5.26501 0.604107C5.16732 0.414832 5.02238 0.176899 4.89999 0C3.91118 0.137991 2.96532 0.381221 2.08173 0.715549C0.299528 2.88783 -0.183599 5.00614 0.0579651 7.09439C1.24002 7.80639 2.38557 8.23891 3.51179 8.52194C3.78986 8.21325 4.03786 7.88511 4.25151 7.53928C3.84461 7.41457 3.45489 7.26067 3.08665 7.08201C3.18434 7.02363 3.2799 6.9626 3.37222 6.8998C5.61822 7.74714 8.05856 7.74714 10.2777 6.8998C10.3711 6.9626 10.4667 7.02363 10.5633 7.08201C10.194 7.26155 9.80319 7.41545 9.39629 7.54017C9.60994 7.88511 9.85687 8.21414 10.136 8.52281C11.2633 8.23978 12.4099 7.80728 13.592 7.09439C13.8754 4.67358 13.1078 2.57472 11.5628 0.713784ZM4.55749 5.81014C3.88327 5.81014 3.33035 5.30244 3.33035 4.68419C3.33035 4.06594 3.87146 3.55737 4.55749 3.55737C5.24355 3.55737 5.79645 4.06505 5.78464 4.68419C5.78571 5.30244 5.24355 5.81014 4.55749 5.81014ZM9.09246 5.81014C8.41823 5.81014 7.86531 5.30244 7.86531 4.68419C7.86531 4.06594 8.40641 3.55737 9.09246 3.55737C9.77849 3.55737 10.3314 4.06505 10.3196 4.68419C10.3196 5.30244 9.77849 5.81014 9.09246 5.81014Z" />
  </svg>
