  <svg
    viewBox="0 0 14 12"
    xmlns="http://www.w3.org/2000/svg"
     fill= "#FFFFFF" >
    <path d="M12.2513 2.74072C12.2572 2.86001 12.2594 2.98078 12.2594 3.10007C12.2594 6.77448 9.44287 11.01 4.29269 11.01C2.71047 11.01 1.23952 10.5498 0 9.76041C0.733158 9.84842 1.4766 9.79214 2.18784 9.59479C2.89907 9.39743 3.56416 9.06287 4.14507 8.61022C3.56086 8.59926 2.9947 8.40734 2.52575 8.0613C2.0568 7.71527 1.7085 7.23241 1.52955 6.68023C1.94945 6.75818 2.38159 6.74182 2.79429 6.63237C2.16052 6.5048 1.59067 6.16363 1.18132 5.66668C0.771967 5.16974 0.548283 4.54758 0.548176 3.90564V3.87103C0.937015 4.08575 1.3719 4.20516 1.81662 4.21933C1.2231 3.82654 0.80296 3.22371 0.641949 2.53388C0.480938 1.84405 0.591197 1.11923 0.950221 0.507353C1.65327 1.36628 2.53048 2.0688 3.52485 2.56926C4.51923 3.06973 5.60853 3.35695 6.72202 3.41228C6.67385 3.20435 6.64971 2.99164 6.65007 2.77828C6.65007 2.41337 6.72248 2.05203 6.86318 1.71491C7.00387 1.37778 7.21009 1.07148 7.47006 0.813481C7.73003 0.555485 8.03864 0.350854 8.37829 0.211276C8.71793 0.0716978 9.08195 -9.30242e-05 9.44955 3.69199e-06C9.83265 -0.000616511 10.2118 0.0769087 10.5635 0.22777C10.9151 0.378632 11.2318 0.599612 11.4939 0.877004C12.1208 0.753811 12.722 0.525728 13.2719 0.202502C13.0628 0.846228 12.6252 1.39262 12.0406 1.74001C12.5956 1.6747 13.1377 1.52726 13.6488 1.30262C13.2733 1.8611 12.8 2.34818 12.2513 2.74072V2.74072Z" />
  </svg>
